<svg xmlns="http://www.w3.org/2000/svg" width="256" height="41.789" viewBox="0 0 256 41.789">
  <g id="그룹_10561" data-name="그룹 10561" transform="translate(-138.181 -286.588)">
    <path id="패스_10084" data-name="패스 10084" d="M138.181,316.685q.925-1.584,1.957-3.6t2.1-4.341q1.068-2.322,2.134-4.9t2.064-5.293q1-2.713,1.885-5.523t1.6-5.586q.516.5,1.077.987t1.094.961q.534.471,1.006.925a9.809,9.809,0,0,1,.791.845q-.658,1.921-1.53,4.047t-1.85,4.323q-.978,2.2-2.019,4.367t-2.046,4.163q-1.006,1.992-1.913,3.727t-1.619,3.051q1.068,0,2.526.009t3.167.027q1.708.018,3.594.053t3.807.089q-.285.391-.658.854t-.792.952q-.418.489-.854.961t-.863.881q-1.6-.09-3.087-.231t-2.873-.329q-1.387-.187-2.713-.383t-2.624-.392a5.445,5.445,0,0,1-.311.516c-.078.107-.11.148-.1.124Z" transform="translate(0 -0.334)" fill="#fbd044"/>
    <path id="패스_10085" data-name="패스 10085" d="M182.909,322.407a31.424,31.424,0,0,1-3.087,2.686,18.451,18.451,0,0,1-2.767,1.743,11.7,11.7,0,0,1-2.518.942,10.144,10.144,0,0,1-2.339.285,2.1,2.1,0,0,1-1.068-.356,6,6,0,0,1-1.939-1.921,1.9,1.9,0,0,1-.338-.942,8.549,8.549,0,0,1,.4-2.678,8.9,8.9,0,0,1,1.058-2.2,9.021,9.021,0,0,1,1.5-1.726A9.5,9.5,0,0,1,173.578,317a8.592,8.592,0,0,1,1.824-.747,6.363,6.363,0,0,1,1.672-.249,2.138,2.138,0,0,1,1.094.32,4.643,4.643,0,0,1,.987.783,4.538,4.538,0,0,1,.72.97,1.909,1.909,0,0,1,.276.88,1.991,1.991,0,0,1-.506,1.236,7.122,7.122,0,0,1-1.432,1.29,19.646,19.646,0,0,1-2.224,1.343q-1.3.685-2.864,1.379a6.813,6.813,0,0,0-.053.836.93.93,0,0,0,.24.747,1.481,1.481,0,0,0,.9.2,6.239,6.239,0,0,0,2.215-.392,10.387,10.387,0,0,0,2-1.014,14.869,14.869,0,0,0,1.85-1.423q.889-.8,1.761-1.619Zm-6.262-4.447a1.235,1.235,0,0,0-.783.382,5.58,5.58,0,0,0-.854,1.006,10.937,10.937,0,0,0-.819,1.432,13.381,13.381,0,0,0-.676,1.681q.658-.427,1.29-.907a9.456,9.456,0,0,0,1.129-1.006,5.2,5.2,0,0,0,.8-1.076,2.27,2.27,0,0,0,.3-1.1.449.449,0,0,0-.1-.284A.349.349,0,0,0,176.647,317.959Z" transform="translate(-12.048 -11.553)" fill="#fbd044"/>
    <path id="패스_10086" data-name="패스 10086" d="M201.805,322.407a31.282,31.282,0,0,1-3.087,2.686,18.39,18.39,0,0,1-2.767,1.743,11.694,11.694,0,0,1-2.517.942,10.149,10.149,0,0,1-2.34.285,2.1,2.1,0,0,1-1.068-.356,5.785,5.785,0,0,1-1.094-.863,5.721,5.721,0,0,1-.845-1.058,1.9,1.9,0,0,1-.338-.942,8.532,8.532,0,0,1,.4-2.678,8.883,8.883,0,0,1,1.058-2.2,9,9,0,0,1,1.5-1.726A9.507,9.507,0,0,1,192.475,317a8.592,8.592,0,0,1,1.824-.747,6.363,6.363,0,0,1,1.672-.249,2.136,2.136,0,0,1,1.094.32,4.643,4.643,0,0,1,.987.783,4.541,4.541,0,0,1,.721.97,1.909,1.909,0,0,1,.276.88,1.989,1.989,0,0,1-.507,1.236,7.116,7.116,0,0,1-1.432,1.29,19.7,19.7,0,0,1-2.224,1.343q-1.3.685-2.864,1.379a6.7,6.7,0,0,0-.053.836.932.932,0,0,0,.24.747,1.482,1.482,0,0,0,.9.2,6.233,6.233,0,0,0,2.215-.392,10.368,10.368,0,0,0,2-1.014,14.823,14.823,0,0,0,1.85-1.423q.89-.8,1.761-1.619Zm-6.262-4.447a1.235,1.235,0,0,0-.783.382,5.629,5.629,0,0,0-.854,1.006,10.937,10.937,0,0,0-.818,1.432,13.384,13.384,0,0,0-.676,1.681q.658-.427,1.29-.907a9.462,9.462,0,0,0,1.13-1.006,5.243,5.243,0,0,0,.8-1.076,2.276,2.276,0,0,0,.3-1.1.448.448,0,0,0-.1-.284A.351.351,0,0,0,195.543,317.959Z" transform="translate(-19.469 -11.553)" fill="#fbd044"/>
    <path id="패스_10087" data-name="패스 10087" d="M242.62,292.282a3.325,3.325,0,0,1,.392,1.815,11.15,11.15,0,0,1-.338,2.57,24.278,24.278,0,0,1-.942,3q-.606,1.584-1.442,3.3t-1.85,3.442a8.986,8.986,0,0,1,1.245,2.9,14.331,14.331,0,0,1,.392,3.381q0,.41-.018.7c-.012.2-.018.353-.018.471a13.359,13.359,0,0,1-1.21.694q-.587.3-1.414.694t-1.859.783a9.913,9.913,0,0,0,.5-1.272,15.122,15.122,0,0,0,.4-1.539q.169-.818.267-1.69a15.53,15.53,0,0,0,.1-1.726q0-.2-.009-.374t-.027-.373q-1.139,1.762-2.384,3.434t-2.517,3.158q-1.272,1.485-2.544,2.731a25.554,25.554,0,0,1-2.464,2.144,12.529,12.529,0,0,1-2.277,1.4,4.8,4.8,0,0,1-1.975.5,1.242,1.242,0,0,1-.667-.24,5.1,5.1,0,0,1-.738-.6,8.381,8.381,0,0,1-.729-.819q-.356-.454-.649-.872t-.5-.756a2.864,2.864,0,0,1-.257-.5c-.036-.1-.086-.267-.151-.516a3.312,3.312,0,0,1-.1-.836,10.779,10.779,0,0,1,.507-3.175,15.811,15.811,0,0,1,1.406-3.211,18.535,18.535,0,0,1,2.126-2.971,16.553,16.553,0,0,1,2.668-2.464,13.09,13.09,0,0,1,3.025-1.672,8.793,8.793,0,0,1,3.2-.614,8.91,8.91,0,0,1,3.4.6q.978-1.69,1.824-3.362t1.45-3.238a24.614,24.614,0,0,0,.952-2.98,10.877,10.877,0,0,0,.347-2.571,2.172,2.172,0,0,0-.267-1.219,1.255,1.255,0,0,0-1.085-.382,6.583,6.583,0,0,0-1.423.2,14.274,14.274,0,0,0-1.806.551,14.945,14.945,0,0,0-1.912.881,9.64,9.64,0,0,0-1.726,1.192,6.249,6.249,0,0,0-1.245,1.459,3.222,3.222,0,0,0-.48,1.7,4.085,4.085,0,0,0,.178,1.1,5.285,5.285,0,0,0,.623,1.334,8.521,8.521,0,0,0,1.219,1.485,11.425,11.425,0,0,0,1.983,1.539q-.907.178-1.734.3t-1.5.213q-.677.089-1.156.142c-.321.036-.551.06-.694.072a5.7,5.7,0,0,1-.854-.667,6.551,6.551,0,0,1-.97-1.139,7.007,7.007,0,0,1-.8-1.592,5.9,5.9,0,0,1-.329-2.028,6.405,6.405,0,0,1,.712-3.06,8.112,8.112,0,0,1,1.832-2.313,11.078,11.078,0,0,1,2.518-1.646,19.166,19.166,0,0,1,2.767-1.076,18.66,18.66,0,0,1,2.561-.587,13.67,13.67,0,0,1,1.921-.178,2.231,2.231,0,0,1,1.032.267,4.858,4.858,0,0,1,.987.685,7.846,7.846,0,0,1,.889.934q.418.516.748,1c.219.327.406.622.56.89S242.549,292.152,242.62,292.282ZM221.7,318.559a3.147,3.147,0,0,0,1.486-.489,11.84,11.84,0,0,0,1.876-1.37q1.015-.881,2.153-2.09t2.313-2.66q1.174-1.45,2.331-3.077t2.241-3.336a1.511,1.511,0,0,0-.267-.018,7.214,7.214,0,0,0-2.882.632,14.09,14.09,0,0,0-2.829,1.655,18.29,18.29,0,0,0-2.57,2.339,21.163,21.163,0,0,0-2.1,2.7,14.824,14.824,0,0,0-1.414,2.7,6.6,6.6,0,0,0-.516,2.357,2.629,2.629,0,0,0,.036.463C221.581,318.493,221.628,318.559,221.7,318.559Z" transform="translate(-31.678 -0.518)" fill="#fbd044"/>
    <path id="패스_10088" data-name="패스 10088" d="M266.277,325.194a.1.1,0,0,0,.107.107,1.393,1.393,0,0,0,.6-.231q.4-.231.916-.587t1.085-.8q.569-.444,1.085-.863t.934-.774q.418-.355.632-.534.159.16.382.409c.149.166.288.32.418.463q-.392.392-.987.943t-1.3,1.147q-.7.6-1.459,1.174t-1.468,1.032a11.137,11.137,0,0,1-1.334.738,2.621,2.621,0,0,1-1.032.285,1.537,1.537,0,0,1-.676-.187,3.214,3.214,0,0,1-.7-.48,2.973,2.973,0,0,1-.551-.649,1.282,1.282,0,0,1-.223-.676,5.267,5.267,0,0,1,.214-1.085q.213-.8.516-1.868a22.564,22.564,0,0,1-1.565,1.912q-.765.828-1.406,1.415t-1.121.952q-.48.364-.712.525a1.082,1.082,0,0,1-.338.134,1.649,1.649,0,0,1-.356.044,1.7,1.7,0,0,1-.748-.2,3.581,3.581,0,0,1-.756-.507,3.15,3.15,0,0,1-.587-.676,1.324,1.324,0,0,1-.24-.712,5.534,5.534,0,0,1,.258-1.3q.258-.907.693-2.17t1.023-2.828q.587-1.565,1.263-3.291c.024-.06.044-.086.063-.08a.328.328,0,0,0,.1.009,5.061,5.061,0,0,1,.925.276q.588.223,1.148.489t.969.507q.41.24.409.329c-.035.083-.128.279-.276.587s-.32.679-.516,1.112-.4.9-.623,1.405-.421.987-.6,1.45-.335.88-.454,1.254a3.093,3.093,0,0,0-.178.827.063.063,0,0,0,.071.072,1.615,1.615,0,0,0,.623-.383,9.491,9.491,0,0,0,1.183-1.2,25.619,25.619,0,0,0,1.592-2.108,31.341,31.341,0,0,0,1.85-3.1l.5-1.405a.221.221,0,0,1,.231-.143,1.6,1.6,0,0,1,.543.24q.417.24.889.551a9.554,9.554,0,0,1,.845.622,1.4,1.4,0,0,1,.409.436,1.733,1.733,0,0,1-.018.187.962.962,0,0,1-.053.222q-.179.48-.409,1.129t-.472,1.352q-.24.7-.471,1.414t-.418,1.326q-.187.614-.3,1.085A3.227,3.227,0,0,0,266.277,325.194Z" transform="translate(-46.119 -11.53)" fill="#fbd044"/>
    <path id="패스_10089" data-name="패스 10089" d="M306.544,291.156q-.8,2.1-1.592,4.056t-1.565,3.807q-.774,1.851-1.557,3.629t-1.583,3.5q1.334-.2,2.713-.409t2.561-.392q1.183-.177,2.037-.3t1.121-.178q1.511-3.629,2.909-7.356t2.784-7.605l1.12,1.12,1.157,1.157q.551.551.961.969t.551.579q-1.245,2.651-2.437,5.177t-2.366,4.946q1.583-.392,2.526-.721t1.432-.516c.326-.124.531-.2.614-.222s.113.018.089.125-.114.264-.231.507-.264.519-.436.828-.365.632-.578.969-.424.65-.632.934a6.063,6.063,0,0,1-.6.712.888.888,0,0,1-.48.3q-.373.071-.871.143-.427.071-1.058.169l-1.45.222q-1.851,3.772-3.478,6.841t-2.944,5.168q-.659-.534-1.245-1.059a3.461,3.461,0,0,0-1.156-.72,23.991,23.991,0,0,0-1.263-4.563,38.114,38.114,0,0,0-2.26-4.9q-1.263,2.669-2.58,5.293t-2.793,5.4q-.764-.623-1.468-1.094t-1.183-.828q.783-1.548,1.708-3.531t1.913-4.305q.987-2.322,2-4.91t2.01-5.346q1-2.757,1.94-5.613t1.761-5.7q.516.5,1.058.987l1.068.961q.525.471.978.925T306.544,291.156Zm-2.206,23.482q1.584-3.308,3.078-6.742-2.616.338-6.067.693.481.748.916,1.566t.819,1.619q.383.8.693,1.539T304.338,314.639Z" transform="translate(-60.146 -0.334)" fill="#fbd044"/>
    <path id="패스_10090" data-name="패스 10090" d="M345.331,322.407a31.287,31.287,0,0,1-3.087,2.686,18.419,18.419,0,0,1-2.766,1.743,11.7,11.7,0,0,1-2.518.942,10.144,10.144,0,0,1-2.339.285,2.1,2.1,0,0,1-1.068-.356,6.008,6.008,0,0,1-1.94-1.921,1.9,1.9,0,0,1-.338-.942,8.549,8.549,0,0,1,.4-2.678,8.882,8.882,0,0,1,1.058-2.2,9.022,9.022,0,0,1,1.5-1.726A9.5,9.5,0,0,1,336,317a8.593,8.593,0,0,1,1.824-.747A6.363,6.363,0,0,1,339.5,316a2.138,2.138,0,0,1,1.094.32,4.673,4.673,0,0,1,.987.783,4.537,4.537,0,0,1,.72.97,1.909,1.909,0,0,1,.276.88,1.989,1.989,0,0,1-.507,1.236,7.1,7.1,0,0,1-1.432,1.29,19.7,19.7,0,0,1-2.224,1.343q-1.3.685-2.864,1.379a6.807,6.807,0,0,0-.053.836.93.93,0,0,0,.24.747,1.48,1.48,0,0,0,.9.2,6.239,6.239,0,0,0,2.215-.392,10.385,10.385,0,0,0,2-1.014,14.861,14.861,0,0,0,1.85-1.423q.89-.8,1.762-1.619Zm-6.262-4.447a1.235,1.235,0,0,0-.783.382,5.58,5.58,0,0,0-.854,1.006,10.935,10.935,0,0,0-.819,1.432,13.381,13.381,0,0,0-.676,1.681q.658-.427,1.29-.907a9.454,9.454,0,0,0,1.129-1.006,5.222,5.222,0,0,0,.8-1.076,2.276,2.276,0,0,0,.3-1.1.448.448,0,0,0-.1-.284A.349.349,0,0,0,339.069,317.959Z" transform="translate(-75.841 -11.553)" fill="#fbd044"/>
    <path id="패스_10091" data-name="패스 10091" d="M364.227,322.407a31.28,31.28,0,0,1-3.087,2.686,18.389,18.389,0,0,1-2.767,1.743,11.706,11.706,0,0,1-2.517.942,10.149,10.149,0,0,1-2.34.285,2.1,2.1,0,0,1-1.068-.356,5.786,5.786,0,0,1-1.094-.863,5.721,5.721,0,0,1-.845-1.058,1.9,1.9,0,0,1-.338-.942,8.531,8.531,0,0,1,.4-2.678,8.883,8.883,0,0,1,1.058-2.2,9,9,0,0,1,1.5-1.726A9.508,9.508,0,0,1,354.9,317a8.579,8.579,0,0,1,1.824-.747,6.362,6.362,0,0,1,1.672-.249,2.138,2.138,0,0,1,1.094.32,4.644,4.644,0,0,1,.987.783,4.541,4.541,0,0,1,.721.97,1.916,1.916,0,0,1,.276.88,1.989,1.989,0,0,1-.507,1.236,7.1,7.1,0,0,1-1.432,1.29,19.59,19.59,0,0,1-2.224,1.343q-1.3.685-2.864,1.379a6.7,6.7,0,0,0-.053.836.932.932,0,0,0,.24.747,1.482,1.482,0,0,0,.9.2,6.233,6.233,0,0,0,2.215-.392,10.369,10.369,0,0,0,2-1.014,14.821,14.821,0,0,0,1.85-1.423q.889-.8,1.761-1.619Zm-6.262-4.447a1.235,1.235,0,0,0-.783.382,5.628,5.628,0,0,0-.854,1.006,11.005,11.005,0,0,0-.819,1.432,13.474,13.474,0,0,0-.676,1.681q.658-.427,1.29-.907a9.41,9.41,0,0,0,1.129-1.006,5.225,5.225,0,0,0,.8-1.076,2.276,2.276,0,0,0,.3-1.1.448.448,0,0,0-.1-.284A.351.351,0,0,0,357.965,317.959Z" transform="translate(-83.263 -11.553)" fill="#fbd044"/>
    <path id="패스_10092" data-name="패스 10092" d="M410.726,293.01a8.016,8.016,0,0,1-.454,2.606,13.424,13.424,0,0,1-1.236,2.615,17.451,17.451,0,0,1-1.833,2.482,22.942,22.942,0,0,1-2.224,2.205,19.859,19.859,0,0,1-2.437,1.806,14.6,14.6,0,0,1-2.455,1.254q-.2-.284-.489-.684t-.632-.836q-.338-.436-.685-.872t-.667-.809a23.106,23.106,0,0,0,4.563-2.366,20.442,20.442,0,0,0,3.433-2.873,12.592,12.592,0,0,0,2.171-3.042,6.554,6.554,0,0,0,.756-2.873,1.436,1.436,0,0,0-.053-.373.854.854,0,0,0-.178-.338.7.7,0,0,0-.329-.2.921.921,0,0,0-.489.009,8.344,8.344,0,0,0-1.841.658,18.837,18.837,0,0,0-2.117,1.2q-1.112.72-2.313,1.664t-2.428,2.028q-.659,2.065-1.512,4.368t-1.85,4.59q-1,2.286-2.09,4.439t-2.224,3.94a25.924,25.924,0,0,1-2.259,3.1,8.175,8.175,0,0,1-2.179,1.877,4.1,4.1,0,0,1-.65.267,4.476,4.476,0,0,1-.952.178.834.834,0,0,1-.507-.178,3.968,3.968,0,0,1-.6-.5,8.793,8.793,0,0,1-.6-.676q-.3-.374-.56-.712t-.427-.6c-.113-.178-.187-.3-.223-.356a1.413,1.413,0,0,1-.151-.632,2.73,2.73,0,0,1,.08-.721,21.381,21.381,0,0,1,1-2.615q.64-1.423,1.5-2.98t1.922-3.2q1.058-1.645,2.277-3.274t2.561-3.211q1.344-1.583,2.767-3.024.907-2.829,1.494-5.355a26.5,26.5,0,0,0,.693-4.394,6.772,6.772,0,0,1,1.352.729,10.366,10.366,0,0,1,1.156.925,9.492,9.492,0,0,1,.907.961,8.324,8.324,0,0,1,.623.854c-.024.2-.053.406-.089.614s-.083.43-.142.667a18.647,18.647,0,0,1,3.531-1.805,9.589,9.589,0,0,1,3.371-.65,1.583,1.583,0,0,1,.738.214,4.648,4.648,0,0,1,.809.56,8.086,8.086,0,0,1,.792.774,8.951,8.951,0,0,1,.685.863,6.327,6.327,0,0,1,.489.819,1.816,1.816,0,0,1,.2.632Zm-25.76,22.362q.41,0,1.1-.907a20.427,20.427,0,0,0,1.556-2.473q.863-1.565,1.824-3.647t1.9-4.412q-1.405,1.672-2.606,3.309t-2.082,3.1a19.423,19.423,0,0,0-1.378,2.7,5.837,5.837,0,0,0-.5,2.108Q384.788,315.372,384.966,315.372Z" transform="translate(-95.764)" fill="#fbd044"/>
    <path id="패스_10093" data-name="패스 10093" d="M421.274,324.992q0,.534.392.533a1.864,1.864,0,0,0,1.085-.649,12.654,12.654,0,0,0,1.405-1.646,2.962,2.962,0,0,1-.044-.347c-.006-.1-.009-.193-.009-.276a5.338,5.338,0,0,1,.08-.845,3.871,3.871,0,0,1,.4-1.112,6.78,6.78,0,0,1,.516-.943q.249-.409.6-.88a7.423,7.423,0,0,1,.783-.88l.107-.107q.178.214.471.578t.587.748q.293.383.516.7a3.222,3.222,0,0,1,.276.445,4.5,4.5,0,0,1-.276,1.53,8.074,8.074,0,0,1-.738,1.512,5.015,5.015,0,0,0,1.984-.542,7.282,7.282,0,0,0,1.912-1.539c.107.106.246.252.418.435s.311.341.418.472a10.481,10.481,0,0,1-1.468,1.3,7.394,7.394,0,0,1-1.441.819,6.919,6.919,0,0,1-1.468.436,8.714,8.714,0,0,1-1.53.134,11.092,11.092,0,0,1-1.3,1.174,10.723,10.723,0,0,1-1.414.925,7.608,7.608,0,0,1-1.432.6,4.712,4.712,0,0,1-1.352.213,2.252,2.252,0,0,1-1.1-.32,4.617,4.617,0,0,1-1.032-.792,4.858,4.858,0,0,1-.765-1.005,1.97,1.97,0,0,1-.3-.943,10.158,10.158,0,0,1,.365-2.686,8.566,8.566,0,0,1,1.139-2.5,8.194,8.194,0,0,1,1.975-2.055,8.668,8.668,0,0,1,2.855-1.352.464.464,0,0,1,.186-.053,1.8,1.8,0,0,1,.223-.018.944.944,0,0,1,.525.186,3.875,3.875,0,0,1,.516.418,3.426,3.426,0,0,1,.4.454.753.753,0,0,1,.16.293.63.63,0,0,1-.267.222,5.151,5.151,0,0,0-.622.454,8.78,8.78,0,0,0-.925.916,13.412,13.412,0,0,0-1.174,1.575,9.715,9.715,0,0,0-1.3,2.606A7.014,7.014,0,0,0,421.274,324.992Z" transform="translate(-109.728 -11.576)" fill="#fbd044"/>
    <path id="패스_10094" data-name="패스 10094" d="M447.662,318.256q-.231.694-.578,1.583t-.667,1.743q-.32.854-.542,1.548a3.776,3.776,0,0,0-.222,1,.094.094,0,0,0,.106.107,1.343,1.343,0,0,0,.587-.231q.391-.231.9-.6t1.058-.819q.551-.444,1.058-.88t.916-.792q.409-.355.622-.534.16.16.383.409c.148.166.287.32.418.463q-.392.392-.979.952t-1.272,1.148q-.685.587-1.423,1.174t-1.441,1.05a10.656,10.656,0,0,1-1.308.747,2.5,2.5,0,0,1-1.013.285,1.718,1.718,0,0,1-.676-.186,4.4,4.4,0,0,1-.783-.463,3.316,3.316,0,0,1-.64-.614,1.07,1.07,0,0,1-.267-.658q.267-1.191.534-2.082t.5-1.521q.231-.631.409-1.023t.267-.587a4.379,4.379,0,0,1-.409-.2l-.392-.214q-.284.3-.632.641t-.7.676q-.356.338-.712.658t-.641.587l-.854-.871q.463-.444,1.112-1.077t1.272-1.272q-.445-.267-.8-.507c-.238-.16-.439-.3-.605-.435q-.3-.214-.533-.392a.232.232,0,0,1-.107-.231,1.617,1.617,0,0,1,.151-.56,7.819,7.819,0,0,1,.383-.783q.231-.417.5-.854t.516-.792q.249-.355.435-.578t.24-.222a1.159,1.159,0,0,1,.24.089c.137.06.282.128.436.2a3.1,3.1,0,0,1,.427.258.806.806,0,0,1,.249.249,3.548,3.548,0,0,1,.036.374q.017.284.036.693.693.356,1.423.809t1.335.863q.71.463,1.352.943a.628.628,0,0,1,.294.356A.621.621,0,0,1,447.662,318.256Z" transform="translate(-118.255 -10.391)" fill="#fbd044"/>
    <path id="패스_10095" data-name="패스 10095" d="M459.374,321.156a1.743,1.743,0,0,1-.792-.276,5.87,5.87,0,0,1-.951-.676,6.177,6.177,0,0,1-.8-.827,1.275,1.275,0,0,1-.338-.73,7.784,7.784,0,0,1,.293-1.69q.293-1.156.774-2.641t1.094-3.176q.614-1.69,1.236-3.309h-2.526c-.012,0-.018-.012-.018-.036a.943.943,0,0,1,.08-.311,4.466,4.466,0,0,1,.2-.427,2.43,2.43,0,0,1,.267-.409.743.743,0,0,1,.293-.24l2.312-.107q.5-1.21.952-2.232t.809-1.752c.06-.131.121-.27.187-.418a1.85,1.85,0,0,1,.284-.445,3.227,3.227,0,0,1,.5-.463,4.549,4.549,0,0,1,.845-.489q.391-.2.952-.427t1.1-.427q.543-.2.987-.329a2.579,2.579,0,0,1,.641-.133c.118,0,.178.024.178.071v.035a.314.314,0,0,1-.036.089q-.107.178-.392.774t-.7,1.494q-.418.9-.925,2.046t-1.041,2.428l4.269-.16q.178,0,.107.213a2.086,2.086,0,0,1-.267.5q-.2.284-.454.587a5.1,5.1,0,0,1-.435.463.385.385,0,0,1-.143.071.834.834,0,0,1-.267.036h-3.523q-.64,1.548-1.227,3.131t-1.05,3.006q-.463,1.424-.738,2.615a9.039,9.039,0,0,0-.276,1.957.094.094,0,0,0,.107.106,1.371,1.371,0,0,0,.587-.222,9.608,9.608,0,0,0,.88-.578q.489-.356,1.041-.783t1.049-.845q.5-.417.9-.765t.614-.525q.159.16.382.409c.149.166.288.32.418.463q-.392.392-.978.952T464.56,317.9q-.685.587-1.423,1.174t-1.441,1.05a10.694,10.694,0,0,1-1.307.747A2.5,2.5,0,0,1,459.374,321.156Z" transform="translate(-125.021 -4.948)" fill="#fbd044"/>
    <path id="패스_10096" data-name="패스 10096" d="M479.887,312.31a30.774,30.774,0,0,1-2.624,2.384,24.16,24.16,0,0,1-2.651,1.859,21.622,21.622,0,0,1-2.731,1.4,23.809,23.809,0,0,1-2.846,1q-.711,2.1-1.477,4.465t-1.6,5.07l-4.661,1.53q.872-2.722,1.708-5.266t1.69-4.945q-.569.089-1.148.142t-1.183.089l-.267-1.815q.907-.089,1.717-.186l1.556-.187q2.082-5.853,4.119-10.594a68.978,68.978,0,0,1,4.118-8.21,27.656,27.656,0,0,1,4.252-5.586,10.01,10.01,0,0,1,4.536-2.7,2.752,2.752,0,0,1,.676.258,5.382,5.382,0,0,1,.693.436,7.982,7.982,0,0,1,.641.525,4.462,4.462,0,0,1,.5.525.517.517,0,0,1,.124.187,1.065,1.065,0,0,1,.036.329,7.31,7.31,0,0,1-.471,2.428,16.667,16.667,0,0,1-1.316,2.775,29.267,29.267,0,0,1-2.011,2.98,39.443,39.443,0,0,1-2.57,3.033q-1.405,1.5-2.989,2.935t-3.255,2.7q-.606,1.477-1.29,3.255t-1.45,3.914a18.9,18.9,0,0,0,2.393-.809,16.937,16.937,0,0,0,2.233-1.139,22.852,22.852,0,0,0,2.25-1.566q1.148-.9,2.464-2.108Zm-4.021-9.945q-.2.356-.48.907-.25.463-.587,1.174t-.765,1.69q1.245-1.157,2.392-2.428t2.144-2.571q1-1.3,1.814-2.553t1.405-2.357a15.417,15.417,0,0,0,.908-1.992,4.531,4.531,0,0,0,.32-1.459c0-.166-.06-.249-.178-.249a1.519,1.519,0,0,0-.89.534,13.336,13.336,0,0,0-1.4,1.708q-.844,1.174-2,3.042T475.867,302.365Z" transform="translate(-126.908 -1.634)" fill="#fbd044"/>
    <path id="패스_10097" data-name="패스 10097" d="M491.294,324.992q0,.534.391.533a1.862,1.862,0,0,0,1.085-.649,12.607,12.607,0,0,0,1.406-1.646,2.729,2.729,0,0,1-.044-.347c-.007-.1-.009-.193-.009-.276a5.342,5.342,0,0,1,.08-.845,3.854,3.854,0,0,1,.4-1.112,6.655,6.655,0,0,1,.516-.943q.249-.409.6-.88a7.375,7.375,0,0,1,.783-.88l.106-.107q.178.214.472.578t.587.748q.293.383.516.7a3.155,3.155,0,0,1,.276.445,4.479,4.479,0,0,1-.276,1.53,8.07,8.07,0,0,1-.738,1.512,5.012,5.012,0,0,0,1.984-.542,7.274,7.274,0,0,0,1.912-1.539c.107.106.247.252.418.435s.312.341.418.472a10.481,10.481,0,0,1-1.468,1.3,7.392,7.392,0,0,1-1.441.819,6.907,6.907,0,0,1-1.468.436,8.711,8.711,0,0,1-1.53.134,11.047,11.047,0,0,1-1.3,1.174,10.721,10.721,0,0,1-1.414.925,7.616,7.616,0,0,1-1.432.6,4.719,4.719,0,0,1-1.352.213,2.249,2.249,0,0,1-1.1-.32,4.635,4.635,0,0,1-1.032-.792,4.852,4.852,0,0,1-.765-1.005,1.97,1.97,0,0,1-.3-.943,10.157,10.157,0,0,1,.364-2.686,8.6,8.6,0,0,1,1.139-2.5,8.215,8.215,0,0,1,1.975-2.055,8.68,8.68,0,0,1,2.855-1.352.471.471,0,0,1,.187-.053,1.786,1.786,0,0,1,.222-.018.943.943,0,0,1,.525.186,3.871,3.871,0,0,1,.516.418,3.381,3.381,0,0,1,.4.454.75.75,0,0,1,.16.293.633.633,0,0,1-.267.222,5.2,5.2,0,0,0-.622.454,8.783,8.783,0,0,0-.925.916,13.4,13.4,0,0,0-1.174,1.575,9.735,9.735,0,0,0-1.3,2.606A7.007,7.007,0,0,0,491.294,324.992Z" transform="translate(-137.23 -11.576)" fill="#fbd044"/>
    <path id="패스_10098" data-name="패스 10098" d="M513.192,315.8a1.859,1.859,0,0,0,.774-.249,11.957,11.957,0,0,0,1.077-.632q.587-.383,1.227-.845t1.2-.907q.56-.444,1.005-.819l.658-.551c.107.107.234.243.383.409s.287.32.418.463q-.391.392-.978.952t-1.272,1.148q-.685.587-1.423,1.174t-1.441,1.05a10.647,10.647,0,0,1-1.308.747,2.5,2.5,0,0,1-1.014.285,2.188,2.188,0,0,1-1.165-.391,7.045,7.045,0,0,1-1.147-.916,7.619,7.619,0,0,1-.907-1.058,2.507,2.507,0,0,1-.427-.8.8.8,0,0,1-.036-.257v-.329a14.481,14.481,0,0,1,.222-2.251q.223-1.361.6-2.882t.862-3.024a24.547,24.547,0,0,1,1.023-2.66,36.947,36.947,0,0,1,2.233-4.2,32.354,32.354,0,0,1,2.25-3.193,20.958,20.958,0,0,1,2.117-2.286,18.907,18.907,0,0,1,1.823-1.494,8.59,8.59,0,0,1,1.37-.819,2.392,2.392,0,0,1,.774-.249,3.106,3.106,0,0,1,.685.364,7.113,7.113,0,0,1,.65.507,6.466,6.466,0,0,1,.534.525c.154.172.267.3.338.382a.739.739,0,0,1,.187.276,1.136,1.136,0,0,1,.044.347,4.563,4.563,0,0,1-.214,1.174,11.03,11.03,0,0,1-.8,1.9,31.726,31.726,0,0,1-1.628,2.748q-1.04,1.6-2.712,3.736-.783,1-1.655,2.028-.747.89-1.726,1.94t-2.01,2.01a29.317,29.317,0,0,0-.721,3.452,18.415,18.415,0,0,0-.2,2.331,1.761,1.761,0,0,0,.089.711A.274.274,0,0,0,513.192,315.8Zm2.846-13.04q-.3.677-.56,1.316t-.49,1.264q.551-.623,1.005-1.192t.774-.979q.373-.48.676-.907,1.245-1.743,2.153-3.2t1.494-2.571a16.715,16.715,0,0,0,.863-1.85,3.563,3.563,0,0,0,.276-1.058.716.716,0,0,0-.009-.133c-.006-.03-.038-.045-.1-.045q-.16,0-.729.525a11.681,11.681,0,0,0-1.4,1.663,33.945,33.945,0,0,0-1.85,2.909A42.679,42.679,0,0,0,516.038,302.762Z" transform="translate(-145.572 -1.818)" fill="#fbd044"/>
    <path id="패스_10099" data-name="패스 10099" d="M526.123,323.492a1.716,1.716,0,0,1-.676-.186,4.407,4.407,0,0,1-.783-.463,3.337,3.337,0,0,1-.64-.614,1.07,1.07,0,0,1-.267-.658q.179-.782.48-1.8t.65-2.063q.347-1.05.729-2.055t.693-1.788q.311-.783.543-1.263c.154-.321.255-.481.3-.481a1.808,1.808,0,0,1,.534.231,9.408,9.408,0,0,1,.9.56,6.717,6.717,0,0,1,.845.694.992.992,0,0,1,.373.632.663.663,0,0,1-.018.134c-.012.053-.03.121-.053.2-.1.3-.216.647-.365,1.05s-.3.822-.471,1.254l-.5,1.3q-.25.649-.445,1.219t-.32,1a2.519,2.519,0,0,0-.124.622.1.1,0,0,0,.107.107,1.346,1.346,0,0,0,.587-.231q.391-.231.9-.6t1.058-.819q.551-.444,1.058-.88t.916-.792q.409-.355.623-.534.159.16.382.409c.149.166.288.32.418.463q-.392.392-.978.952t-1.272,1.148q-.685.587-1.423,1.174t-1.432,1.05a10.158,10.158,0,0,1-1.3.747A2.522,2.522,0,0,1,526.123,323.492Zm7.045-16.794a3.393,3.393,0,0,1-.133.347q-.117.276-.276.641t-.365.765q-.2.4-.4.738a4.742,4.742,0,0,1-.373.56q-.179.223-.285.223a2.567,2.567,0,0,1-.774-.2,8.129,8.129,0,0,1-.871-.4,5.97,5.97,0,0,1-.712-.436q-.293-.213-.293-.3a3.035,3.035,0,0,1,.213-.969,10.01,10.01,0,0,1,.5-1.157,7.4,7.4,0,0,1,.579-.969q.293-.41.454-.409a2.025,2.025,0,0,1,.783.2,7.574,7.574,0,0,1,.9.471,6.548,6.548,0,0,1,.747.525Q533.168,306.592,533.168,306.7Z" transform="translate(-151.44 -7.284)" fill="#fbd044"/>
    <path id="패스_10100" data-name="패스 10100" d="M539.428,324.992q0,.534.392.533a1.864,1.864,0,0,0,1.085-.649,12.7,12.7,0,0,0,1.406-1.646,2.855,2.855,0,0,1-.045-.347c-.006-.1-.009-.193-.009-.276a5.336,5.336,0,0,1,.08-.845,3.836,3.836,0,0,1,.4-1.112,6.713,6.713,0,0,1,.516-.943q.25-.409.6-.88a7.477,7.477,0,0,1,.783-.88l.107-.107q.178.214.472.578t.587.748c.2.255.367.489.516.7a3.167,3.167,0,0,1,.276.445,4.479,4.479,0,0,1-.276,1.53,8.07,8.07,0,0,1-.738,1.512,5.014,5.014,0,0,0,1.984-.542,7.273,7.273,0,0,0,1.912-1.539c.107.106.247.252.418.435s.311.341.418.472a10.488,10.488,0,0,1-1.468,1.3,7.4,7.4,0,0,1-1.441.819,6.92,6.92,0,0,1-1.468.436,8.712,8.712,0,0,1-1.53.134,11.047,11.047,0,0,1-1.3,1.174,10.721,10.721,0,0,1-1.414.925,7.608,7.608,0,0,1-1.432.6,4.712,4.712,0,0,1-1.352.213,2.252,2.252,0,0,1-1.1-.32,4.629,4.629,0,0,1-1.032-.792,4.856,4.856,0,0,1-.765-1.005,1.97,1.97,0,0,1-.3-.943,10.161,10.161,0,0,1,.365-2.686,8.567,8.567,0,0,1,1.139-2.5,8.218,8.218,0,0,1,1.975-2.055,8.674,8.674,0,0,1,2.855-1.352.467.467,0,0,1,.187-.053,1.786,1.786,0,0,1,.222-.018.944.944,0,0,1,.525.186,3.875,3.875,0,0,1,.516.418,3.385,3.385,0,0,1,.4.454.75.75,0,0,1,.16.293.633.633,0,0,1-.267.222,5.156,5.156,0,0,0-.622.454,8.78,8.78,0,0,0-.925.916,13.415,13.415,0,0,0-1.174,1.575,9.732,9.732,0,0,0-1.3,2.606A7.014,7.014,0,0,0,539.428,324.992Z" transform="translate(-156.135 -11.576)" fill="#fbd044"/>
  </g>
</svg>
